<?xml version="1.0" encoding="UTF-8" standalone="no"?>
<svg
   xmlns:dc="http://purl.org/dc/elements/1.1/"
   xmlns:cc="http://creativecommons.org/ns#"
   xmlns:rdf="http://www.w3.org/1999/02/22-rdf-syntax-ns#"
   xmlns:svg="http://www.w3.org/2000/svg"
   xmlns="http://www.w3.org/2000/svg"
   xmlns:sodipodi="http://sodipodi.sourceforge.net/DTD/sodipodi-0.dtd"
   xmlns:inkscape="http://www.inkscape.org/namespaces/inkscape"
   viewBox="0 0 512 512"
   fill="none"
   version="1.1"
   id="svg6"
   sodipodi:docname="Simon Swindles.svg"
   inkscape:version="1.0 (4035a4fb49, 2020-05-01)"
   width="512"
   height="512">
  <metadata
     id="metadata12">
    <rdf:RDF>
      <cc:Work
         rdf:about="">
        <dc:format>image/svg+xml</dc:format>
        <dc:type
           rdf:resource="http://purl.org/dc/dcmitype/StillImage" />
        <dc:title></dc:title>
      </cc:Work>
    </rdf:RDF>
  </metadata>
  <defs
     id="defs10">
    <inkscape:path-effect
       lpeversion="0"
       only_selected="false"
       apply_with_weight="true"
       apply_no_weight="true"
       helper_size="0"
       steps="2"
       weight="33.333333"
       is_visible="true"
       id="path-effect1013"
       effect="bspline" />
    <inkscape:path-effect
       lpeversion="0"
       only_selected="false"
       apply_with_weight="true"
       apply_no_weight="true"
       helper_size="0"
       steps="2"
       weight="33.333333"
       is_visible="true"
       id="path-effect1011"
       effect="bspline" />
    <inkscape:path-effect
       effect="bspline"
       id="path-effect5221"
       is_visible="true"
       weight="33.333333"
       steps="2"
       helper_size="0"
       apply_no_weight="true"
       apply_with_weight="true"
       only_selected="false"
       lpeversion="0" />
    <inkscape:path-effect
       effect="bspline"
       id="path-effect5194"
       is_visible="true"
       weight="33.333333"
       steps="2"
       helper_size="0"
       apply_no_weight="true"
       apply_with_weight="true"
       only_selected="false"
       lpeversion="0" />
    <inkscape:path-effect
       effect="bspline"
       id="path-effect5140"
       is_visible="true"
       weight="33.333333"
       steps="2"
       helper_size="0"
       apply_no_weight="true"
       apply_with_weight="true"
       only_selected="false"
       lpeversion="0" />
    <inkscape:path-effect
       effect="bspline"
       id="path-effect4963"
       is_visible="true"
       weight="33.333333"
       steps="2"
       helper_size="0"
       apply_no_weight="true"
       apply_with_weight="true"
       only_selected="false"
       lpeversion="0" />
    <inkscape:path-effect
       effect="bspline"
       id="path-effect4872"
       is_visible="true"
       weight="33.333333"
       steps="2"
       helper_size="0"
       apply_no_weight="true"
       apply_with_weight="true"
       only_selected="false"
       lpeversion="0" />
    <inkscape:path-effect
       effect="bspline"
       id="path-effect4868"
       is_visible="true"
       weight="33.333333"
       steps="2"
       helper_size="0"
       apply_no_weight="true"
       apply_with_weight="true"
       only_selected="false"
       lpeversion="0" />
    <inkscape:path-effect
       effect="bspline"
       id="path-effect4671"
       is_visible="true"
       weight="33.333333"
       steps="2"
       helper_size="0"
       apply_no_weight="true"
       apply_with_weight="true"
       only_selected="false"
       lpeversion="0" />
    <inkscape:path-effect
       effect="bspline"
       id="path-effect4648"
       is_visible="true"
       weight="33.333333"
       steps="2"
       helper_size="0"
       apply_no_weight="true"
       apply_with_weight="true"
       only_selected="false"
       lpeversion="0" />
    <inkscape:path-effect
       effect="bspline"
       id="path-effect4671-9"
       is_visible="true"
       weight="33.333333"
       steps="2"
       helper_size="0"
       apply_no_weight="true"
       apply_with_weight="true"
       only_selected="false"
       lpeversion="0" />
    <inkscape:path-effect
       effect="bspline"
       id="path-effect4671-9-0"
       is_visible="true"
       weight="33.333333"
       steps="2"
       helper_size="0"
       apply_no_weight="true"
       apply_with_weight="true"
       only_selected="false"
       lpeversion="0" />
    <inkscape:path-effect
       effect="bspline"
       id="path-effect4671-0"
       is_visible="true"
       weight="33.333333"
       steps="2"
       helper_size="0"
       apply_no_weight="true"
       apply_with_weight="true"
       only_selected="false"
       lpeversion="0" />
    <inkscape:path-effect
       effect="bspline"
       id="path-effect4671-9-0-9"
       is_visible="true"
       weight="33.333333"
       steps="2"
       helper_size="0"
       apply_no_weight="true"
       apply_with_weight="true"
       only_selected="false"
       lpeversion="0" />
    <inkscape:path-effect
       effect="bspline"
       id="path-effect4963-6"
       is_visible="true"
       weight="33.333333"
       steps="2"
       helper_size="0"
       apply_no_weight="true"
       apply_with_weight="true"
       only_selected="false"
       lpeversion="0" />
    <inkscape:path-effect
       effect="bspline"
       id="path-effect4963-1"
       is_visible="true"
       weight="33.333333"
       steps="2"
       helper_size="0"
       apply_no_weight="true"
       apply_with_weight="true"
       only_selected="false"
       lpeversion="0" />
    <inkscape:path-effect
       effect="bspline"
       id="path-effect4963-1-3"
       is_visible="true"
       weight="33.333333"
       steps="2"
       helper_size="0"
       apply_no_weight="true"
       apply_with_weight="true"
       only_selected="false"
       lpeversion="0" />
    <inkscape:path-effect
       effect="bspline"
       id="path-effect4963-4"
       is_visible="true"
       weight="33.333333"
       steps="2"
       helper_size="0"
       apply_no_weight="true"
       apply_with_weight="true"
       only_selected="false"
       lpeversion="0" />
    <inkscape:path-effect
       effect="bspline"
       id="path-effect4963-1-3-5"
       is_visible="true"
       weight="33.333333"
       steps="2"
       helper_size="0"
       apply_no_weight="true"
       apply_with_weight="true"
       only_selected="false"
       lpeversion="0" />
    <inkscape:path-effect
       effect="bspline"
       id="path-effect4963-4-8"
       is_visible="true"
       weight="33.333333"
       steps="2"
       helper_size="0"
       apply_no_weight="true"
       apply_with_weight="true"
       only_selected="false"
       lpeversion="0" />
    <inkscape:path-effect
       effect="bspline"
       id="path-effect5221-5"
       is_visible="true"
       weight="33.333333"
       steps="2"
       helper_size="0"
       apply_no_weight="true"
       apply_with_weight="true"
       only_selected="false"
       lpeversion="0" />
  </defs>
  <sodipodi:namedview
     pagecolor="#ffffff"
     bordercolor="#ff0000"
     borderopacity="1"
     objecttolerance="10"
     gridtolerance="10"
     guidetolerance="10"
     inkscape:pageopacity="0"
     inkscape:pageshadow="2"
     inkscape:window-width="1595"
     inkscape:window-height="1027"
     id="namedview8"
     showgrid="false"
     inkscape:pagecheckerboard="true"
     inkscape:showpageshadow="false"
     inkscape:snap-bbox="true"
     inkscape:bbox-paths="true"
     inkscape:bbox-nodes="true"
     inkscape:snap-bbox-midpoints="true"
     inkscape:snap-bbox-edge-midpoints="true"
     inkscape:snap-intersection-paths="true"
     inkscape:object-paths="true"
     inkscape:snap-midpoints="true"
     inkscape:snap-smooth-nodes="true"
     inkscape:snap-center="true"
     inkscape:snap-object-midpoints="true"
     inkscape:snap-text-baseline="true"
     inkscape:snap-page="true"
     inkscape:zoom="1"
     inkscape:cx="277.89483"
     inkscape:cy="331.64506"
     inkscape:window-x="1016"
     inkscape:window-y="-8"
     inkscape:window-maximized="1"
     inkscape:current-layer="text893-7-7"
     inkscape:document-rotation="0"
     showguides="true"
     inkscape:guide-bbox="true" />
  <g
     id="g922"
     style="fill:#000000;fill-opacity:1">
    <g
       style="font-style:normal;font-variant:normal;font-weight:normal;font-stretch:normal;font-size:21.3333px;line-height:1;font-family:Oxanium;-inkscape-font-specification:'Oxanium, Normal';font-variant-ligatures:normal;font-variant-caps:normal;font-variant-numeric:normal;font-feature-settings:normal;text-align:center;letter-spacing:0px;word-spacing:0px;writing-mode:lr-tb;text-anchor:middle;fill:#000000;fill-opacity:1;stroke:none;stroke-width:1"
       id="text893-7-7"
       aria-label="Made by Lilshadow1997 on NewGrounds">
      <path
         id="path913"
         style="font-style:normal;font-variant:normal;font-weight:normal;font-stretch:normal;font-size:21.3333px;font-family:Arial;-inkscape-font-specification:Arial;fill:#000000;fill-opacity:1;stroke-width:1"
         d="m 8.0000007,535.53125 v -15.27081 h 3.0416623 l 3.614577,10.81248 q 0.499999,1.51042 0.729166,2.26042 0.260416,-0.83334 0.812498,-2.44792 l 3.656245,-10.62498 h 2.718745 v 15.27081 h -1.947913 v -12.78123 l -4.437493,12.78123 H 14.364574 L 9.9479142,522.53127 v 12.99998 z" />
      <path
         id="path915"
         style="font-style:normal;font-variant:normal;font-weight:normal;font-stretch:normal;font-size:21.3333px;font-family:Arial;-inkscape-font-specification:Arial;fill:#000000;fill-opacity:1;stroke-width:1"
         d="m 32.833296,534.16667 q -1.041665,0.88541 -2.010414,1.25 -0.958332,0.36458 -2.062497,0.36458 -1.822913,0 -2.802079,-0.88542 -0.979165,-0.89583 -0.979165,-2.28124 0,-0.8125 0.364583,-1.47917 0.374999,-0.67708 0.968748,-1.08333 0.604166,-0.40625 1.354165,-0.61458 0.552082,-0.14583 1.666664,-0.28125 2.27083,-0.27083 3.343745,-0.64583 0.01042,-0.38542 0.01042,-0.48958 0,-1.14584 -0.531249,-1.61459 -0.718749,-0.63541 -2.135413,-0.63541 -1.322915,0 -1.95833,0.46875 -0.624999,0.45833 -0.927082,1.63541 l -1.833331,-0.25 q 0.25,-1.17708 0.822916,-1.89583 0.572916,-0.72916 1.656247,-1.11458 1.083332,-0.39583 2.510413,-0.39583 1.416664,0 2.30208,0.33333 0.885415,0.33333 1.302081,0.84375 0.416666,0.5 0.583332,1.27083 0.09375,0.47917 0.09375,1.72916 v 2.5 q 0,2.61458 0.114583,3.3125 0.125,0.68749 0.479166,1.32291 h -1.95833 q -0.291666,-0.58333 -0.374999,-1.36458 z m -0.15625,-4.18749 q -1.020832,0.41666 -3.062495,0.70833 -1.156249,0.16666 -1.635414,0.375 -0.479166,0.20833 -0.739583,0.61458 -0.260416,0.39583 -0.260416,0.88541 0,0.75 0.562499,1.25 0.572916,0.5 1.666664,0.5 1.083332,0 1.927081,-0.46875 0.843748,-0.47916 1.239581,-1.30208 0.302083,-0.63541 0.302083,-1.875 z" />
      <path
         id="path917"
         style="font-style:normal;font-variant:normal;font-weight:normal;font-stretch:normal;font-size:21.3333px;font-family:Arial;-inkscape-font-specification:Arial;fill:#000000;fill-opacity:1;stroke-width:1"
         d="m 44.66661,535.53125 v -1.39583 q -1.052082,1.64583 -3.093745,1.64583 -1.322915,0 -2.437496,-0.72917 -1.104165,-0.72916 -1.718748,-2.03124 -0.604165,-1.3125 -0.604165,-3.01041 0,-1.65625 0.552082,-3 0.552083,-1.35416 1.656247,-2.07291 1.104165,-0.71875 2.468747,-0.71875 0.999998,0 1.781247,0.42708 0.781248,0.41667 1.270831,1.09375 v -5.47916 h 1.86458 v 15.27081 z m -5.927074,-5.52082 q 0,2.12499 0.895832,3.17707 0.895832,1.05209 2.11458,1.05209 1.229165,0 2.08333,-1 0.864582,-1.01042 0.864582,-3.07291 0,-2.27083 -0.874999,-3.33333 -0.874998,-1.0625 -2.156246,-1.0625 -1.249998,0 -2.093747,1.02083 -0.833332,1.02083 -0.833332,3.21875 z" />
      <path
         id="path919"
         style="font-style:normal;font-variant:normal;font-weight:normal;font-stretch:normal;font-size:21.3333px;font-family:Arial;-inkscape-font-specification:Arial;fill:#000000;fill-opacity:1;stroke-width:1"
         d="m 56.937425,531.96876 1.937497,0.23958 q -0.458332,1.69791 -1.697914,2.63541 -1.239581,0.9375 -3.166661,0.9375 -2.42708,0 -3.854161,-1.48958 -1.416664,-1.5 -1.416664,-4.19791 0,-2.79166 1.437497,-4.33333 1.437498,-1.54166 3.729161,-1.54166 2.218747,0 3.624994,1.51041 1.406248,1.51042 1.406248,4.25 0,0.16666 -0.01042,0.49999 h -8.249987 q 0.104166,1.82292 1.031248,2.79167 0.927082,0.96875 2.312496,0.96875 1.031249,0 1.760414,-0.54167 0.729166,-0.54167 1.156248,-1.72916 z m -6.15624,-3.03125 h 6.177074 q -0.125,-1.39583 -0.708333,-2.09375 -0.895831,-1.08333 -2.322913,-1.08333 -1.291664,0 -2.177079,0.86458 -0.874999,0.86459 -0.968749,2.3125 z" />
      <path
         id="path921"
         style="font-style:normal;font-variant:normal;font-weight:normal;font-stretch:normal;font-size:21.3333px;font-family:Arial;-inkscape-font-specification:Arial;fill:#000000;fill-opacity:1;stroke-width:1"
         d="m 68.885322,535.53125 h -1.739581 v -15.27081 h 1.874998 v 5.44791 q 1.187498,-1.48958 3.031245,-1.48958 1.020831,0 1.92708,0.41666 0.916665,0.40625 1.499998,1.15625 0.593749,0.73958 0.927082,1.79167 0.333332,1.05208 0.333332,2.24999 0,2.84375 -1.406247,4.39583 -1.406248,1.55208 -3.374995,1.55208 -1.95833,0 -3.072912,-1.63541 z m -0.02083,-5.61457 q 0,1.98958 0.541666,2.87499 0.885415,1.44792 2.395829,1.44792 1.229165,0 2.124997,-1.0625 0.895832,-1.07292 0.895832,-3.1875 0,-2.16666 -0.864582,-3.19791 -0.854166,-1.03125 -2.072914,-1.03125 -1.229164,0 -2.124996,1.07292 -0.895832,1.0625 -0.895832,3.08333 z" />
      <path
         id="path923"
         style="font-style:normal;font-variant:normal;font-weight:normal;font-stretch:normal;font-size:21.3333px;font-family:Arial;-inkscape-font-specification:Arial;fill:#000000;fill-opacity:1;stroke-width:1"
         d="m 78.947806,539.79166 -0.208333,-1.76041 q 0.614582,0.16666 1.072915,0.16666 0.624999,0 0.999998,-0.20833 0.375,-0.20833 0.614583,-0.58333 0.177083,-0.28125 0.572915,-1.39583 0.05208,-0.15625 0.166667,-0.45834 l -4.19791,-11.08331 h 2.02083 l 2.30208,6.40624 q 0.447916,1.21875 0.802082,2.56249 0.322916,-1.29166 0.770832,-2.52083 l 2.364579,-6.4479 h 1.874997 l -4.208326,11.24998 q -0.677083,1.82291 -1.052082,2.51041 -0.499999,0.92708 -1.145832,1.35417 -0.645832,0.4375 -1.541664,0.4375 -0.541666,0 -1.208331,-0.22917 z" />
      <path
         id="path925"
         style="font-style:normal;font-variant:normal;font-weight:normal;font-stretch:normal;font-size:21.3333px;font-family:Arial;-inkscape-font-specification:Arial;fill:#000000;fill-opacity:1;stroke-width:1"
         d="m 95.770694,535.53125 v -15.27081 h 2.02083 v 13.46873 h 7.520826 v 1.80208 z" />
      <path
         id="path927"
         style="font-style:normal;font-variant:normal;font-weight:normal;font-stretch:normal;font-size:21.3333px;font-family:Arial;-inkscape-font-specification:Arial;fill:#000000;fill-opacity:1;stroke-width:1"
         d="m 107.49985,522.41669 v -2.15625 h 1.87499 v 2.15625 z m 0,13.11456 v -11.06248 h 1.87499 v 11.06248 z" />
      <path
         id="path929"
         style="font-style:normal;font-variant:normal;font-weight:normal;font-stretch:normal;font-size:21.3333px;font-family:Arial;-inkscape-font-specification:Arial;fill:#000000;fill-opacity:1;stroke-width:1"
         d="m 112.19775,535.53125 v -15.27081 h 1.875 v 15.27081 z" />
      <path
         id="path931"
         style="font-style:normal;font-variant:normal;font-weight:normal;font-stretch:normal;font-size:21.3333px;font-family:Arial;-inkscape-font-specification:Arial;fill:#000000;fill-opacity:1;stroke-width:1"
         d="m 116.23942,532.22917 1.85416,-0.29166 q 0.15625,1.11458 0.86458,1.70833 0.71875,0.59375 2,0.59375 1.29166,0 1.91666,-0.52084 0.625,-0.53125 0.625,-1.23958 0,-0.63541 -0.55208,-1 -0.38542,-0.25 -1.91667,-0.63541 -2.06249,-0.52084 -2.86457,-0.89583 -0.79167,-0.38542 -1.20834,-1.05209 -0.40625,-0.67708 -0.40625,-1.48958 0,-0.73958 0.33334,-1.36458 0.34375,-0.63541 0.92708,-1.05208 0.4375,-0.32292 1.1875,-0.54167 0.76041,-0.22916 1.62499,-0.22916 1.30209,0 2.28125,0.375 0.98958,0.375 1.45833,1.02083 0.46875,0.63541 0.64583,1.70833 l -1.83333,0.25 q -0.125,-0.85417 -0.72916,-1.33333 -0.59375,-0.47917 -1.6875,-0.47917 -1.29166,0 -1.84375,0.42708 -0.55208,0.42709 -0.55208,1 0,0.36459 0.22917,0.65625 0.22916,0.30208 0.71875,0.5 0.28125,0.10417 1.65624,0.47917 1.98958,0.53125 2.77083,0.875 0.79167,0.33333 1.23958,0.97916 0.44792,0.64583 0.44792,1.60417 0,0.93749 -0.55208,1.77083 -0.54167,0.82291 -1.57292,1.28124 -1.03124,0.44792 -2.33333,0.44792 -2.15624,0 -3.29166,-0.89583 -1.125,-0.89583 -1.43749,-2.65625 z" />
      <path
         id="path933"
         style="font-style:normal;font-variant:normal;font-weight:normal;font-stretch:normal;font-size:21.3333px;font-family:Arial;-inkscape-font-specification:Arial;fill:#000000;fill-opacity:1;stroke-width:1"
         d="m 127.65606,535.53125 v -15.27081 h 1.875 v 5.47916 q 1.3125,-1.52083 3.31249,-1.52083 1.22917,0 2.13542,0.48958 0.90625,0.47917 1.29166,1.33333 0.39584,0.85417 0.39584,2.47916 v 7.01041 h -1.875 v -7.01041 q 0,-1.40624 -0.61458,-2.04166 -0.60417,-0.64583 -1.71875,-0.64583 -0.83333,0 -1.57292,0.4375 -0.72916,0.42708 -1.04166,1.16666 -0.3125,0.73958 -0.3125,2.04167 v 6.05207 z" />
      <path
         id="path935"
         style="font-style:normal;font-variant:normal;font-weight:normal;font-stretch:normal;font-size:21.3333px;font-family:Arial;-inkscape-font-specification:Arial;fill:#000000;fill-opacity:1;stroke-width:1"
         d="m 146.74979,534.16667 q -1.04167,0.88541 -2.01042,1.25 -0.95833,0.36458 -2.06249,0.36458 -1.82292,0 -2.80208,-0.88542 -0.97917,-0.89583 -0.97917,-2.28124 0,-0.8125 0.36458,-1.47917 0.375,-0.67708 0.96875,-1.08333 0.60417,-0.40625 1.35417,-0.61458 0.55208,-0.14583 1.66666,-0.28125 2.27083,-0.27083 3.34375,-0.64583 0.0104,-0.38542 0.0104,-0.48958 0,-1.14584 -0.53125,-1.61459 -0.71875,-0.63541 -2.13541,-0.63541 -1.32291,0 -1.95833,0.46875 -0.625,0.45833 -0.92708,1.63541 l -1.83333,-0.25 q 0.25,-1.17708 0.82291,-1.89583 0.57292,-0.72916 1.65625,-1.11458 1.08333,-0.39583 2.51041,-0.39583 1.41667,0 2.30208,0.33333 0.88542,0.33333 1.30208,0.84375 0.41667,0.5 0.58334,1.27083 0.0937,0.47917 0.0937,1.72916 v 2.5 q 0,2.61458 0.11458,3.3125 0.125,0.68749 0.47917,1.32291 h -1.95833 q -0.29167,-0.58333 -0.375,-1.36458 z m -0.15625,-4.18749 q -1.02084,0.41666 -3.0625,0.70833 -1.15625,0.16666 -1.63541,0.375 -0.47917,0.20833 -0.73959,0.61458 -0.26041,0.39583 -0.26041,0.88541 0,0.75 0.5625,1.25 0.57291,0.5 1.66666,0.5 1.08333,0 1.92708,-0.46875 0.84375,-0.47916 1.23958,-1.30208 0.30209,-0.63541 0.30209,-1.875 z" />
      <path
         id="path937"
         style="font-style:normal;font-variant:normal;font-weight:normal;font-stretch:normal;font-size:21.3333px;font-family:Arial;-inkscape-font-specification:Arial;fill:#000000;fill-opacity:1;stroke-width:1"
         d="m 158.58309,535.53125 v -1.39583 q -1.05208,1.64583 -3.09375,1.64583 -1.32291,0 -2.43749,-0.72917 -1.10417,-0.72916 -1.71875,-2.03124 -0.60417,-1.3125 -0.60417,-3.01041 0,-1.65625 0.55209,-3 0.55208,-1.35416 1.65624,-2.07291 1.10417,-0.71875 2.46875,-0.71875 1,0 1.78125,0.42708 0.78125,0.41667 1.27083,1.09375 v -5.47916 h 1.86458 v 15.27081 z m -5.92708,-5.52082 q 0,2.12499 0.89584,3.17707 0.89583,1.05209 2.11458,1.05209 1.22916,0 2.08333,-1 0.86458,-1.01042 0.86458,-3.07291 0,-2.27083 -0.875,-3.33333 -0.875,-1.0625 -2.15625,-1.0625 -1.24999,0 -2.09374,1.02083 -0.83334,1.02083 -0.83334,3.21875 z" />
      <path
         id="path939"
         style="font-style:normal;font-variant:normal;font-weight:normal;font-stretch:normal;font-size:21.3333px;font-family:Arial;-inkscape-font-specification:Arial;fill:#000000;fill-opacity:1;stroke-width:1"
         d="m 162.58309,530.00001 q 0,-3.07291 1.70833,-4.55208 1.42708,-1.22916 3.47916,-1.22916 2.28124,0 3.72916,1.5 1.44791,1.48958 1.44791,4.12499 0,2.13541 -0.64583,3.36458 -0.63541,1.21875 -1.86458,1.89583 -1.21875,0.67708 -2.66666,0.67708 -2.32292,0 -3.76041,-1.48958 -1.42708,-1.48958 -1.42708,-4.29166 z m 1.92708,0 q 0,2.125 0.92708,3.18749 0.92708,1.05209 2.33333,1.05209 1.39583,0 2.32291,-1.0625 0.92708,-1.0625 0.92708,-3.23958 0,-2.05208 -0.9375,-3.10416 -0.92708,-1.0625 -2.31249,-1.0625 -1.40625,0 -2.33333,1.05208 -0.92708,1.05208 -0.92708,3.17708 z" />
      <path
         id="path941"
         style="font-style:normal;font-variant:normal;font-weight:normal;font-stretch:normal;font-size:21.3333px;font-family:Arial;-inkscape-font-specification:Arial;fill:#000000;fill-opacity:1;stroke-width:1"
         d="m 177.19765,535.53125 -3.38541,-11.06248 h 1.9375 l 1.76041,6.3854 0.65625,2.375 q 0.0417,-0.17708 0.57291,-2.28125 l 1.76042,-6.47915 h 1.92708 l 1.65625,6.41665 0.55208,2.11458 0.63541,-2.13541 1.89583,-6.39582 h 1.82292 l -3.45833,11.06248 h -1.94791 l -1.76042,-6.62499 -0.42708,-1.88541 -2.23958,8.5104 z" />
      <path
         id="path943"
         style="font-style:normal;font-variant:normal;font-weight:normal;font-stretch:normal;font-size:21.3333px;font-family:Arial;-inkscape-font-specification:Arial;fill:#000000;fill-opacity:1;stroke-width:1"
         d="m 197.11428,535.53125 h -1.87499 v -11.9479 q -0.67709,0.64583 -1.78125,1.29167 -1.09375,0.64583 -1.96875,0.96875 v -1.8125 q 1.57292,-0.73958 2.75,-1.79167 1.17708,-1.05208 1.66666,-2.04166 h 1.20833 z" />
      <path
         id="path945"
         style="font-style:normal;font-variant:normal;font-weight:normal;font-stretch:normal;font-size:21.3333px;font-family:Arial;-inkscape-font-specification:Arial;fill:#000000;fill-opacity:1;stroke-width:1"
         d="m 202.20803,532.00001 1.80208,-0.16667 q 0.22917,1.27083 0.875,1.84375 0.64583,0.57291 1.65625,0.57291 0.86458,0 1.51041,-0.39583 0.65625,-0.39583 1.07292,-1.05208 0.41666,-0.66667 0.69791,-1.79167 0.28125,-1.12499 0.28125,-2.29166 0,-0.125 -0.0104,-0.375 -0.5625,0.89583 -1.54166,1.45833 -0.96875,0.55208 -2.10416,0.55208 -1.89583,0 -3.20833,-1.37499 -1.3125,-1.375 -1.3125,-3.625 0,-2.32291 1.36458,-3.73957 1.375,-1.41667 3.4375,-1.41667 1.48958,0 2.71874,0.80208 1.23958,0.80209 1.875,2.29167 0.64583,1.47916 0.64583,4.29166 0,2.92707 -0.63541,4.66666 -0.63542,1.72916 -1.89584,2.63541 -1.24999,0.90625 -2.93749,0.90625 -1.79166,0 -2.92708,-0.98959 -1.13541,-0.99999 -1.36458,-2.80207 z m 7.67707,-6.73958 q 0,-1.61458 -0.86458,-2.56249 -0.85417,-0.94792 -2.0625,-0.94792 -1.25,0 -2.17708,1.02083 -0.92708,1.02084 -0.92708,2.64583 0,1.45833 0.875,2.375 0.88541,0.90625 2.17708,0.90625 1.30208,0 2.13541,-0.90625 0.84375,-0.91667 0.84375,-2.53125 z" />
      <path
         id="path947"
         style="font-style:normal;font-variant:normal;font-weight:normal;font-stretch:normal;font-size:21.3333px;font-family:Arial;-inkscape-font-specification:Arial;fill:#000000;fill-opacity:1;stroke-width:1"
         d="m 214.083,532.00001 1.80208,-0.16667 q 0.22917,1.27083 0.875,1.84375 0.64583,0.57291 1.65625,0.57291 0.86458,0 1.51041,-0.39583 0.65625,-0.39583 1.07291,-1.05208 0.41667,-0.66667 0.69792,-1.79167 0.28125,-1.12499 0.28125,-2.29166 0,-0.125 -0.0104,-0.375 -0.5625,0.89583 -1.54166,1.45833 -0.96875,0.55208 -2.10416,0.55208 -1.89583,0 -3.20833,-1.37499 -1.3125,-1.375 -1.3125,-3.625 0,-2.32291 1.36458,-3.73957 1.375,-1.41667 3.4375,-1.41667 1.48958,0 2.71874,0.80208 1.23958,0.80209 1.875,2.29167 0.64583,1.47916 0.64583,4.29166 0,2.92707 -0.63542,4.66666 -0.63541,1.72916 -1.89583,2.63541 -1.24999,0.90625 -2.93749,0.90625 -1.79166,0 -2.92708,-0.98959 -1.13541,-0.99999 -1.36458,-2.80207 z m 7.67707,-6.73958 q 0,-1.61458 -0.86458,-2.56249 -0.85417,-0.94792 -2.0625,-0.94792 -1.25,0 -2.17708,1.02083 -0.92708,1.02084 -0.92708,2.64583 0,1.45833 0.875,2.375 0.88541,0.90625 2.17708,0.90625 1.30208,0 2.13541,-0.90625 0.84375,-0.91667 0.84375,-2.53125 z" />
      <path
         id="path949"
         style="font-style:normal;font-variant:normal;font-weight:normal;font-stretch:normal;font-size:21.3333px;font-family:Arial;-inkscape-font-specification:Arial;fill:#000000;fill-opacity:1;stroke-width:1"
         d="m 225.80173,522.26044 v -1.80208 h 9.8854 v 1.45833 q -1.45833,1.55208 -2.89582,4.12499 -1.42708,2.57291 -2.20833,5.29166 -0.5625,1.91666 -0.71875,4.19791 h -1.92708 q 0.0312,-1.80208 0.70833,-4.35416 0.67708,-2.55208 1.9375,-4.91666 1.27083,-2.37499 2.69791,-3.99999 z" />
      <path
         id="path951"
         style="font-style:normal;font-variant:normal;font-weight:normal;font-stretch:normal;font-size:21.3333px;font-family:Arial;-inkscape-font-specification:Arial;fill:#000000;fill-opacity:1;stroke-width:1"
         d="m 243.29129,530.00001 q 0,-3.07291 1.70833,-4.55208 1.42708,-1.22916 3.47916,-1.22916 2.28125,0 3.72916,1.5 1.44792,1.48958 1.44792,4.12499 0,2.13541 -0.64583,3.36458 -0.63542,1.21875 -1.86458,1.89583 -1.21875,0.67708 -2.66667,0.67708 -2.32291,0 -3.76041,-1.48958 -1.42708,-1.48958 -1.42708,-4.29166 z m 1.92708,0 q 0,2.125 0.92708,3.18749 0.92709,1.05209 2.33333,1.05209 1.39584,0 2.32292,-1.0625 0.92708,-1.0625 0.92708,-3.23958 0,-2.05208 -0.9375,-3.10416 -0.92708,-1.0625 -2.3125,-1.0625 -1.40624,0 -2.33333,1.05208 -0.92708,1.05208 -0.92708,3.17708 z" />
      <path
         id="path953"
         style="font-style:normal;font-variant:normal;font-weight:normal;font-stretch:normal;font-size:21.3333px;font-family:Arial;-inkscape-font-specification:Arial;fill:#000000;fill-opacity:1;stroke-width:1"
         d="m 255.86419,535.53125 v -11.06248 h 1.6875 v 1.57291 q 1.21875,-1.82291 3.52083,-1.82291 1,0 1.83333,0.36458 0.84375,0.35417 1.26041,0.9375 0.41667,0.58333 0.58334,1.38541 0.10416,0.52084 0.10416,1.82292 v 6.80207 h -1.875 v -6.72916 q 0,-1.14583 -0.21874,-1.70833 -0.21875,-0.57291 -0.78125,-0.90625 -0.55209,-0.34374 -1.30208,-0.34374 -1.19792,0 -2.07292,0.76041 -0.86458,0.76042 -0.86458,2.88541 v 6.04166 z" />
      <path
         id="path955"
         style="font-style:normal;font-variant:normal;font-weight:normal;font-stretch:normal;font-size:21.3333px;font-family:Arial;-inkscape-font-specification:Arial;fill:#000000;fill-opacity:1;stroke-width:1"
         d="m 273.87458,535.53125 v -15.27081 h 2.07292 l 8.02082,11.98957 v -11.98957 h 1.93749 v 15.27081 h -2.07291 l -8.02082,-11.99998 v 11.99998 z" />
      <path
         id="path957"
         style="font-style:normal;font-variant:normal;font-weight:normal;font-stretch:normal;font-size:21.3333px;font-family:Arial;-inkscape-font-specification:Arial;fill:#000000;fill-opacity:1;stroke-width:1"
         d="m 296.64536,531.96876 1.9375,0.23958 q -0.45833,1.69791 -1.69791,2.63541 -1.23958,0.9375 -3.16666,0.9375 -2.42708,0 -3.85416,-1.48958 -1.41667,-1.5 -1.41667,-4.19791 0,-2.79166 1.4375,-4.33333 1.4375,-1.54166 3.72916,-1.54166 2.21875,0 3.62499,1.51041 1.40625,1.51042 1.40625,4.25 0,0.16666 -0.0104,0.49999 h -8.24998 q 0.10416,1.82292 1.03125,2.79167 0.92708,0.96875 2.31249,0.96875 1.03125,0 1.76042,-0.54167 0.72916,-0.54167 1.15624,-1.72916 z m -6.15624,-3.03125 h 6.17708 q -0.125,-1.39583 -0.70833,-2.09375 -0.89584,-1.08333 -2.32292,-1.08333 -1.29166,0 -2.17708,0.86458 -0.875,0.86459 -0.96875,2.3125 z" />
      <path
         id="path959"
         style="font-style:normal;font-variant:normal;font-weight:normal;font-stretch:normal;font-size:21.3333px;font-family:Arial;-inkscape-font-specification:Arial;fill:#000000;fill-opacity:1;stroke-width:1"
         d="m 302.98912,535.53125 -3.38541,-11.06248 h 1.9375 l 1.76041,6.3854 0.65625,2.375 q 0.0417,-0.17708 0.57292,-2.28125 l 1.76041,-6.47915 h 1.92708 l 1.65625,6.41665 0.55208,2.11458 0.63542,-2.13541 1.89583,-6.39582 h 1.82291 l -3.45833,11.06248 h -1.94791 l -1.76041,-6.62499 -0.42709,-1.88541 -2.23958,8.5104 z" />
      <path
         id="path961"
         style="font-style:normal;font-variant:normal;font-weight:normal;font-stretch:normal;font-size:21.3333px;font-family:Arial;-inkscape-font-specification:Arial;fill:#000000;fill-opacity:1;stroke-width:1"
         d="m 323.74949,529.54168 v -1.79167 l 6.46874,-0.0104 v 5.66665 q -1.48958,1.1875 -3.07291,1.79167 -1.58333,0.59375 -3.25,0.59375 -2.24999,0 -4.09374,-0.95834 -1.83333,-0.96874 -2.77083,-2.79166 -0.9375,-1.82291 -0.9375,-4.07291 0,-2.22916 0.92708,-4.15624 0.9375,-1.9375 2.6875,-2.875 1.75,-0.9375 4.03124,-0.9375 1.65625,0 2.98958,0.54167 1.34375,0.53125 2.10417,1.48958 0.76041,0.95833 1.15624,2.5 l -1.82291,0.5 q -0.34375,-1.16667 -0.85416,-1.83333 -0.51042,-0.66667 -1.45834,-1.0625 -0.94791,-0.40625 -2.10416,-0.40625 -1.38541,0 -2.39583,0.42708 -1.01041,0.41667 -1.63541,1.10417 -0.61459,0.68749 -0.95833,1.51041 -0.58334,1.41666 -0.58334,3.07291 0,2.04167 0.69792,3.41666 0.70833,1.375 2.05208,2.04167 1.34375,0.66666 2.85416,0.66666 1.3125,0 2.5625,-0.5 1.24999,-0.51041 1.89583,-1.08333 v -2.84374 z" />
      <path
         id="path963"
         style="font-style:normal;font-variant:normal;font-weight:normal;font-stretch:normal;font-size:21.3333px;font-family:Arial;-inkscape-font-specification:Arial;fill:#000000;fill-opacity:1;stroke-width:1"
         d="m 332.92657,535.53125 v -11.06248 h 1.68749 v 1.67708 q 0.64584,-1.17708 1.1875,-1.55208 0.55208,-0.375 1.20833,-0.375 0.94792,0 1.92708,0.60416 l -0.64583,1.73958 q -0.6875,-0.40625 -1.375,-0.40625 -0.61458,0 -1.10416,0.375 -0.48958,0.36459 -0.69792,1.02084 -0.3125,0.99999 -0.3125,2.18749 v 5.79166 z" />
      <path
         id="path965"
         style="font-style:normal;font-variant:normal;font-weight:normal;font-stretch:normal;font-size:21.3333px;font-family:Arial;-inkscape-font-specification:Arial;fill:#000000;fill-opacity:1;stroke-width:1"
         d="m 339.37448,530.00001 q 0,-3.07291 1.70833,-4.55208 1.42708,-1.22916 3.47917,-1.22916 2.28124,0 3.72916,1.5 1.44791,1.48958 1.44791,4.12499 0,2.13541 -0.64583,3.36458 -0.63542,1.21875 -1.86458,1.89583 -1.21875,0.67708 -2.66666,0.67708 -2.32292,0 -3.76042,-1.48958 -1.42708,-1.48958 -1.42708,-4.29166 z m 1.92708,0 q 0,2.125 0.92709,3.18749 0.92708,1.05209 2.33333,1.05209 1.39583,0 2.32291,-1.0625 0.92708,-1.0625 0.92708,-3.23958 0,-2.05208 -0.9375,-3.10416 -0.92708,-1.0625 -2.31249,-1.0625 -1.40625,0 -2.33333,1.05208 -0.92709,1.05208 -0.92709,3.17708 z" />
      <path
         id="path967"
         style="font-style:normal;font-variant:normal;font-weight:normal;font-stretch:normal;font-size:21.3333px;font-family:Arial;-inkscape-font-specification:Arial;fill:#000000;fill-opacity:1;stroke-width:1"
         d="m 359.19736,535.53125 v -1.625 q -1.29167,1.875 -3.51041,1.875 -0.97917,0 -1.83333,-0.375 -0.84375,-0.375 -1.26042,-0.9375 -0.40625,-0.57291 -0.57292,-1.39583 -0.11458,-0.55208 -0.11458,-1.75 v -6.85415 h 1.875 v 6.1354 q 0,1.46875 0.11458,1.97917 0.17708,0.73958 0.75,1.16666 0.57292,0.41667 1.41667,0.41667 0.84374,0 1.58333,-0.42708 0.73958,-0.4375 1.04166,-1.17709 0.3125,-0.74999 0.3125,-2.16666 v -5.92707 h 1.875 v 11.06248 z" />
      <path
         id="path969"
         style="font-style:normal;font-variant:normal;font-weight:normal;font-stretch:normal;font-size:21.3333px;font-family:Arial;-inkscape-font-specification:Arial;fill:#000000;fill-opacity:1;stroke-width:1"
         d="m 363.82234,535.53125 v -11.06248 h 1.6875 v 1.57291 q 1.21874,-1.82291 3.52082,-1.82291 1,0 1.83333,0.36458 0.84375,0.35417 1.26042,0.9375 0.41666,0.58333 0.58333,1.38541 0.10417,0.52084 0.10417,1.82292 v 6.80207 h -1.875 v -6.72916 q 0,-1.14583 -0.21875,-1.70833 -0.21875,-0.57291 -0.78125,-0.90625 -0.55208,-0.34374 -1.30208,-0.34374 -1.19791,0 -2.07291,0.76041 -0.86459,0.76042 -0.86459,2.88541 v 6.04166 z" />
      <path
         id="path971"
         style="font-style:normal;font-variant:normal;font-weight:normal;font-stretch:normal;font-size:21.3333px;font-family:Arial;-inkscape-font-specification:Arial;fill:#000000;fill-opacity:1;stroke-width:1"
         d="m 382.87441,535.53125 v -1.39583 q -1.05208,1.64583 -3.09375,1.64583 -1.32291,0 -2.43749,-0.72917 -1.10417,-0.72916 -1.71875,-2.03124 -0.60416,-1.3125 -0.60416,-3.01041 0,-1.65625 0.55208,-3 0.55208,-1.35416 1.65625,-2.07291 1.10416,-0.71875 2.46874,-0.71875 1,0 1.78125,0.42708 0.78125,0.41667 1.27083,1.09375 v -5.47916 h 1.86458 v 15.27081 z m -5.92707,-5.52082 q 0,2.12499 0.89583,3.17707 0.89583,1.05209 2.11458,1.05209 1.22916,0 2.08333,-1 0.86458,-1.01042 0.86458,-3.07291 0,-2.27083 -0.875,-3.33333 -0.875,-1.0625 -2.15625,-1.0625 -1.24999,0 -2.09374,1.02083 -0.83333,1.02083 -0.83333,3.21875 z" />
      <path
         id="path973"
         style="font-style:normal;font-variant:normal;font-weight:normal;font-stretch:normal;font-size:21.3333px;font-family:Arial;-inkscape-font-specification:Arial;fill:#000000;fill-opacity:1;stroke-width:1"
         d="m 386.82231,532.22917 1.85416,-0.29166 q 0.15625,1.11458 0.86458,1.70833 0.71875,0.59375 2,0.59375 1.29167,0 1.91666,-0.52084 0.625,-0.53125 0.625,-1.23958 0,-0.63541 -0.55208,-1 -0.38541,-0.25 -1.91666,-0.63541 -2.0625,-0.52084 -2.86458,-0.89583 -0.79167,-0.38542 -1.20833,-1.05209 -0.40625,-0.67708 -0.40625,-1.48958 0,-0.73958 0.33333,-1.36458 0.34375,-0.63541 0.92708,-1.05208 0.4375,-0.32292 1.1875,-0.54167 0.76042,-0.22916 1.625,-0.22916 1.30208,0 2.28124,0.375 0.98959,0.375 1.45834,1.02083 0.46874,0.63541 0.64583,1.70833 l -1.83333,0.25 q -0.125,-0.85417 -0.72917,-1.33333 -0.59375,-0.47917 -1.6875,-0.47917 -1.29166,0 -1.84374,0.42708 -0.55208,0.42709 -0.55208,1 0,0.36459 0.22916,0.65625 0.22917,0.30208 0.71875,0.5 0.28125,0.10417 1.65625,0.47917 1.98958,0.53125 2.77083,0.875 0.79166,0.33333 1.23958,0.97916 0.44791,0.64583 0.44791,1.60417 0,0.93749 -0.55208,1.77083 -0.54166,0.82291 -1.57291,1.28124 -1.03125,0.44792 -2.33333,0.44792 -2.15625,0 -3.29166,-0.89583 -1.125,-0.89583 -1.4375,-2.65625 z" />
      <path
         d="M 433.5778,413.95022 256,362.68792 78.422201,413.95022 211.60555,285.79448 256,106.37645 300.39445,285.79448 Z"
         inkscape:randomized="0"
         inkscape:rounded="0"
         inkscape:flatsided="false"
         sodipodi:arg2="1.5707963"
         sodipodi:arg1="0.52359878"
         sodipodi:r2="51.262295"
         sodipodi:r1="205.04918"
         sodipodi:cy="311.42563"
         sodipodi:cx="256"
         sodipodi:sides="3"
         id="path74"
         style="fill:none;fill-rule:evenodd;stroke:#000000;stroke-width:8;stroke-linecap:butt;stroke-miterlimit:10;stroke-dasharray:none"
         sodipodi:type="star" />
      <circle
         r="16"
         cy="311.42563"
         cx="256"
         id="path899"
         style="fill:#000000;fill-opacity:1;fill-rule:evenodd;stroke:none;stroke-width:7.99999;stroke-linecap:butt;stroke-miterlimit:10;stroke-dasharray:none" />
      <path
         id="path901"
         d="M 211.60555,285.79448 256,311.42563"
         style="fill:none;fill-opacity:1;fill-rule:evenodd;stroke:#000000;stroke-width:8;stroke-linecap:butt;stroke-miterlimit:10;stroke-dasharray:none;stroke-opacity:1" />
      <path
         id="path903"
         d="M 256,362.68792 V 311.42563"
         style="fill:none;fill-opacity:1;fill-rule:evenodd;stroke:#000000;stroke-width:8;stroke-linecap:butt;stroke-miterlimit:10;stroke-dasharray:none;stroke-opacity:1" />
      <path
         id="path905"
         d="M 300.39445,285.79448 256,311.42563"
         style="fill:none;fill-opacity:1;fill-rule:evenodd;stroke:#000000;stroke-width:8;stroke-linecap:butt;stroke-miterlimit:10;stroke-dasharray:none;stroke-opacity:1" />
    </g>
  </g>
  <path
     id="rect1017-7"
     d="M 17.999975,17.999995 H 494.00002 V 494 H 17.999975 Z"
     style="fill:none;fill-rule:evenodd;stroke:#000000;stroke-width:4;stroke-miterlimit:4;stroke-dasharray:none;fill-opacity:1" />
  <circle
     cy="63.999996"
     cx="448.00003"
     id="path1220-2"
     style="fill:none;fill-rule:evenodd;stroke:#000000;stroke-width:4;stroke-miterlimit:4;stroke-dasharray:none;fill-opacity:1"
     r="22" />
  <text
     id="text967"
     y="-132"
     x="104"
     style="font-size:53.3333px;line-height:1;font-family:Oxanium;-inkscape-font-specification:Oxanium;text-align:center;letter-spacing:0px;word-spacing:0px;writing-mode:lr-tb;text-anchor:middle;fill:#000000;fill-opacity:1"
     xml:space="preserve"><tspan
       y="-132"
       x="104"
       id="tspan965"
       sodipodi:role="line" /></text>
</svg>
